<?xml version="1.0" encoding="UTF-8" standalone="no" ?>
<!-- Created with Inkscape (http://www.inkscape.org/) -->

<svg
  version="1.1"
  id="svg1"
  width="774.66669"
  height="774.66669"
  viewBox="0 0 774.66669 774.66669"
  xmlns="http://www.w3.org/2000/svg"
  xmlns:svg="http://www.w3.org/2000/svg"
>
  <defs id="defs1" />
  <g id="g1" style="display:inline">
    <path
      style="display:inline;fill:#191e24;fill-opacity:1;stroke-width:1.15812"
      d="m 180.72415,696.05848 c -34.22699,-9.28691 -58.60314,-44.44897 -54.78103,-79.79476 -1.00098,-162.08748 -1.59148,-324.21059 0.31122,-486.28909 0.003,-49.376826 56.85804,-85.499887 102.16282,-67.608443 36.41358,16.608645 69.42379,40.396203 104.40622,59.954453 106.07996,64.41241 214.02429,125.80967 319.01521,191.97454 44.24076,24.00948 45.51658,94.0443 4.22209,121.60775 -105.33256,65.51925 -212.16002,128.79419 -317.71783,194.02716 -39.03017,22.22574 -75.20443,50.53167 -117.33282,66.59339 -13.19668,2.73944 -27.10265,1.89684 -40.28588,-0.465 z"
      id="path4"
    />
    <path
      style="display:inline;fill:#ffffff;fill-opacity:1;stroke-width:1.15812"
      d="m 281.04902,596.38106 c 38.66731,-23.54944 94.62465,-57.72564 124.34963,-75.9471 29.72497,-18.22146 90.77308,-55.25302 135.66247,-82.29236 60.97662,-36.72955 82.37554,-50.37326 84.61629,-53.95036 3.26361,-5.21001 3.01355,-13.21062 -0.54806,-17.53457 -2.20118,-2.67235 -14.25716,-10.63732 -27.48347,-18.1574 -4.67106,-2.65582 -38.71967,-22.91169 -75.66356,-45.01303 -276.60143,-165.47419 -310.1222,-185.30727 -315.4608,-186.64718 -5.74991,-1.44313 -14.2528,1.82637 -18.79814,7.22821 l -3.91092,4.64786 v 249.03413 249.03413 l 3.52782,5.24686 c 4.02171,5.98143 12.00458,9.40401 18.81724,8.06775 2.523,-0.49488 36.22418,-20.16749 74.8915,-43.71694 z"
      id="path3"
    />
    <path
      style="display:inline;fill:#0e55ff;fill-opacity:1;stroke-width:1.15812"
      d="m 377.37701,451.32022 c -6.45294,-3.93477 -9.19015,-11.93664 -6.68241,-19.53517 1.103,-3.34213 3.74247,-6.69441 6.68241,-8.48708 4.4695,-2.72533 8.16341,-2.96349 46.04698,-2.96881 l 41.18765,-0.006 4.69843,3.95348 c 8.35171,7.02748 7.86223,19.99649 -1.01834,26.98195 -3.61832,2.84617 -6.42907,3.03561 -44.95752,3.0302 -37.79505,-0.006 -41.4884,-0.2439 -45.9572,-2.9688 z"
      id="path2"
    />
    <path
      style="display:inline;fill:#0e55ff;fill-opacity:1;stroke-width:1.15812"
      d="m 234.09491,453.4619 c -11.29223,-3.8821 -16.28146,-12.64886 -13.30973,-23.38703 0.89669,-3.2401 2.15167,-6.64102 2.78885,-7.55761 0.6372,-0.91658 18.53026,-16.81764 39.76239,-35.33569 21.23213,-18.51804 38.73866,-34.09754 38.90339,-34.62111 0.16474,-0.52357 -3.07832,-3.73143 -7.20681,-7.12856 -22.84236,-18.79594 -71.34001,-61.69695 -72.77346,-64.37539 -2.66741,-4.98409 -2.15542,-15.68809 1.00641,-21.04065 4.86452,-8.23497 17.68137,-12.08642 25.88856,-7.77948 4.46099,2.34103 3.32861,1.4041 87.44228,72.34943 18.21328,15.36192 21.70514,19.84569 21.70514,27.87077 0,8.93947 -4.49157,14.33152 -28.87795,34.66749 -13.23973,11.0407 -35.2862,29.45474 -48.99217,40.92009 -13.70596,11.46535 -26.0929,21.78342 -27.52654,22.92903 -4.42103,3.53284 -12.61841,4.6174 -18.81036,2.48871 z"
      id="path1"
    />
  </g>
</svg>
